<svg width="14" height="24" viewBox="0 0 14 24" fill="none" xmlns="http://www.w3.org/2000/svg">
<path d="M13.5194 0.469691C13.368 0.320806 13.1882 0.202681 12.9903 0.122084C12.7924 0.0414866 12.5802 0 12.3659 0C12.1516 0 11.9394 0.0414866 11.7414 0.122084C11.5435 0.202681 11.3637 0.320806 11.2124 0.469691L0.381169 11.0981C0.26034 11.2165 0.164479 11.357 0.099073 11.5117C0.0336669 11.6665 0 11.8323 0 11.9998C0 12.1673 0.0336669 12.3332 0.099073 12.4879C0.164479 12.6426 0.26034 12.7832 0.381169 12.9015L11.2124 23.53C11.851 24.1567 12.8807 24.1567 13.5194 23.53C14.158 22.9033 14.158 21.8929 13.5194 21.2661L4.0828 11.9934L13.5324 2.72072C14.158 2.1068 14.158 1.08361 13.5194 0.469691Z" fill="white"/>
</svg>
