<svg width="25" height="26" viewBox="0 0 25 26" fill="none" xmlns="http://www.w3.org/2000/svg">
<path fill-rule="evenodd" clip-rule="evenodd" d="M0.35875 21.39C0.59875 21.63 0.895833 21.75 1.25 21.75H18.75C19.1042 21.75 19.4008 21.63 19.64 21.39C19.88 21.1508 20 20.8542 20 20.5C20 20.1458 19.88 19.8492 19.64 19.61C19.4008 19.37 19.1042 19.25 18.75 19.25H17.5V15.5H15V19.25H5V10.5C5 9.125 5.48958 7.94792 6.46875 6.96875C7.44792 5.98958 8.625 5.5 10 5.5C10.5417 5.5 11.0521 5.57833 11.5312 5.735C12.0104 5.89083 12.4479 6.11458 12.8438 6.40625L13.735 5.515L14.625 4.625C14.2292 4.29167 13.8021 4.01042 13.3438 3.78125C12.8854 3.55208 12.3958 3.375 11.875 3.25V2.375C11.875 1.85417 11.6925 1.41167 11.3275 1.0475C10.9633 0.6825 10.5208 0.5 10 0.5C9.47917 0.5 9.03667 0.6825 8.6725 1.0475C8.3075 1.41167 8.125 1.85417 8.125 2.375V3.25C6.5 3.66667 5.15625 4.53625 4.09375 5.85875C3.03125 7.18208 2.5 8.72917 2.5 10.5V19.25H1.25C0.895833 19.25 0.59875 19.37 0.35875 19.61C0.119584 19.8492 0 20.1458 0 20.5C0 20.8542 0.119584 21.1508 0.35875 21.39ZM8.235 24.7663C8.72417 25.2554 9.3125 25.5 10 25.5C10.6875 25.5 11.2763 25.2554 11.7663 24.7663C12.2554 24.2763 12.5 23.6875 12.5 23H7.5C7.5 23.6875 7.745 24.2763 8.235 24.7663Z" fill="#68767A"/>
<path d="M20 14.25C19.6458 14.25 19.3492 14.13 19.11 13.89C18.87 13.6508 18.75 13.3542 18.75 13V10.5H16.25C15.8958 10.5 15.5992 10.38 15.36 10.14C15.12 9.90083 15 9.60417 15 9.25C15 8.89583 15.12 8.59875 15.36 8.35875C15.5992 8.11958 15.8958 8 16.25 8H18.75V5.5C18.75 5.14583 18.87 4.84875 19.11 4.60875C19.3492 4.36958 19.6458 4.25 20 4.25C20.3542 4.25 20.6508 4.36958 20.89 4.60875C21.13 4.84875 21.25 5.14583 21.25 5.5V8H23.75C24.1042 8 24.4008 8.11958 24.64 8.35875C24.88 8.59875 25 8.89583 25 9.25C25 9.60417 24.88 9.90083 24.64 10.14C24.4008 10.38 24.1042 10.5 23.75 10.5H21.25V13C21.25 13.3542 21.13 13.6508 20.89 13.89C20.6508 14.13 20.3542 14.25 20 14.25Z" fill="#1CB5BD"/>
</svg>
