<svg width="36" height="34" viewBox="0 0 36 34" fill="none" xmlns="http://www.w3.org/2000/svg">
<path d="M0 11.724C0 5.641 4.036 0 9.563 0C13.398 0 16.243 2.53 18 6.121C19.756 2.531 22.602 0 26.438 0C31.965 0 36 5.642 36 11.724C35.9988 12.7853 35.8815 13.8433 35.65 14.879C34.6664 13.6661 33.4241 12.6883 32.014 12.0171C30.6039 11.346 29.0617 10.9985 27.5 11C21.701 11 17 15.701 17 21.5C16.9995 23.4708 17.5538 25.4019 18.5992 27.0726C19.6447 28.7432 21.1393 30.0859 22.912 30.947C20.122 32.908 18 34 18 34C18 34 0 25.304 0 11.724Z" fill="#FE5558"/>
<path d="M29.9999 21.9999C29.9995 22.277 29.9415 22.551 29.8296 22.8045C29.7177 23.0581 29.5543 23.2856 29.3498 23.4726C29.1454 23.6597 28.9043 23.8022 28.6418 23.8911C28.3794 23.9801 28.1013 24.0135 27.8252 23.9893C27.5492 23.9651 27.2811 23.8838 27.0382 23.7506C26.7952 23.6173 26.5825 23.435 26.4137 23.2152C26.2449 22.9955 26.1236 22.743 26.0576 22.4739C25.9915 22.2048 25.982 21.9248 26.0299 21.6519L23.6099 19.2319L25.0249 17.8179L27.3239 20.1179C27.6258 20.0094 27.9493 19.9752 28.2672 20.0181C28.5851 20.061 28.888 20.1797 29.1504 20.3642C29.4128 20.5488 29.6269 20.7937 29.7748 21.0784C29.9226 21.363 29.9998 21.6791 29.9999 21.9999Z" fill="#FE5558"/>
<path fill-rule="evenodd" clip-rule="evenodd" d="M36 21.5C36 23.7543 35.1045 25.9163 33.5104 27.5104C31.9163 29.1045 29.7543 30 27.5 30C25.2457 30 23.0837 29.1045 21.4896 27.5104C19.8955 25.9163 19 23.7543 19 21.5C19 19.2457 19.8955 17.0837 21.4896 15.4896C23.0837 13.8955 25.2457 13 27.5 13C29.7543 13 31.9163 13.8955 33.5104 15.4896C35.1045 17.0837 36 19.2457 36 21.5ZM34 21.5C34 23.2239 33.3152 24.8772 32.0962 26.0962C30.8772 27.3152 29.2239 28 27.5 28C25.7761 28 24.1228 27.3152 22.9038 26.0962C21.6848 24.8772 21 23.2239 21 21.5C21 19.7761 21.6848 18.1228 22.9038 16.9038C24.1228 15.6848 25.7761 15 27.5 15C29.2239 15 30.8772 15.6848 32.0962 16.9038C33.3152 18.1228 34 19.7761 34 21.5Z" fill="#FE5558"/>
</svg>
