<svg width="39" height="34" viewBox="0 0 39 34" fill="none" xmlns="http://www.w3.org/2000/svg">
<path d="M3.125 11.4948C3.125 5.53021 7.09583 0 12.5323 0C16.3052 0 19.1052 2.48125 20.8333 6.00104C22.5615 2.48125 25.3615 0 29.1344 0C34.5719 0 38.5417 5.53125 38.5417 11.4948C38.5417 24.2583 20.8333 33.3333 20.8333 33.3333C20.8333 33.3333 8.90521 27.5906 4.62813 18.1708H15.1927L16.8719 15.1865L18.8333 22.051L23.4271 16.1458H29.1667V14.0625H22.4063L19.7083 17.5312L17.5031 9.81354L13.974 16.0875H3.83333C4.05417 16.801 4.32188 17.4958 4.62813 18.1708H0V16.0875H3.83333C3.36669 14.6008 3.12787 13.052 3.125 11.4937V11.4948Z" fill="#FE5558"/>
</svg>
