<svg width="24" height="24" viewBox="0 0 24 24" fill="none" xmlns="http://www.w3.org/2000/svg">
<path d="M12 0C9.62663 0 7.30655 0.703788 5.33316 2.02236C3.35977 3.34094 1.8217 5.21508 0.913451 7.4078C0.00519941 9.60051 -0.232441 12.0133 0.230582 14.3411C0.693605 16.6689 1.83649 18.807 3.51472 20.4853C5.19295 22.1635 7.33115 23.3064 9.65892 23.7694C11.9867 24.2324 14.3995 23.9948 16.5922 23.0865C18.7849 22.1783 20.6591 20.6402 21.9776 18.6668C23.2962 16.6934 24 14.3734 24 12C23.9939 8.81927 22.7277 5.77057 20.4785 3.52146C18.2294 1.27234 15.1807 0.0060992 12 0ZM12 22.1538C9.99176 22.1538 8.02862 21.5583 6.35883 20.4426C4.68904 19.3269 3.38759 17.7411 2.61907 15.8857C1.85055 14.0303 1.64947 11.9887 2.04126 10.0191C2.43305 8.04943 3.40011 6.24019 4.82015 4.82015C6.24019 3.40011 8.04943 2.43305 10.0191 2.04126C11.9887 1.64947 14.0303 1.85055 15.8857 2.61907C17.7411 3.38759 19.3269 4.68903 20.4426 6.35882C21.5583 8.02861 22.1538 9.99176 22.1538 12C22.1508 14.692 21.08 17.2729 19.1765 19.1765C17.2729 21.08 14.692 22.1508 12 22.1538ZM16.6154 10.1538C16.6123 9.17552 16.2224 8.23813 15.5306 7.54635C14.8388 6.85457 13.9014 6.46458 12.9231 6.46154H9.23077C8.98596 6.46154 8.75117 6.55879 8.57806 6.7319C8.40495 6.90501 8.3077 7.1398 8.3077 7.38461V16.6154C8.3077 16.8602 8.40495 17.095 8.57806 17.2681C8.75117 17.4412 8.98596 17.5385 9.23077 17.5385C9.47559 17.5385 9.71038 17.4412 9.88349 17.2681C10.0566 17.095 10.1538 16.8602 10.1538 16.6154V13.8462H12.6231L14.9308 17.1462C15.0179 17.2668 15.1323 17.3653 15.2646 17.4334C15.3969 17.5016 15.5435 17.5376 15.6923 17.5385C15.881 17.5362 16.0651 17.4801 16.2231 17.3769C16.4237 17.2351 16.5604 17.02 16.6035 16.7781C16.6467 16.5362 16.593 16.2871 16.4538 16.0846L14.5962 13.4423C15.2033 13.1337 15.7132 12.6632 16.0696 12.0829C16.4259 11.5025 16.6148 10.8349 16.6154 10.1538ZM12.9231 12H10.1538V8.30769H12.9231C13.4127 8.30769 13.8823 8.5022 14.2285 8.84842C14.5747 9.19464 14.7692 9.66421 14.7692 10.1538C14.7692 10.6435 14.5747 11.1131 14.2285 11.4593C13.8823 11.8055 13.4127 12 12.9231 12Z" fill="white"/>
</svg>
