<svg width="36" height="34" viewBox="0 0 36 34" fill="none" xmlns="http://www.w3.org/2000/svg">
<path d="M5.66381 2.31223C5.66381 2.96215 5.13116 3.49063 4.47631 3.49063H4.86842C5.52319 3.49063 6.05588 2.96215 6.05588 2.31223C6.05588 1.66231 5.52319 1.13379 4.86838 1.13379H4.47631C5.13116 1.13379 5.66381 1.66228 5.66381 2.31223Z" fill="#FE5558"/>
<path d="M9.40881 19.0857H9.80087C5.92261 19.0857 2.7675 15.9539 2.7675 12.1042V3.94419C2.7675 3.69357 2.97193 3.49065 3.22405 3.49065H2.83199C2.57987 3.49065 2.37549 3.69357 2.37549 3.94419V12.1042C2.37549 15.9539 5.53048 19.0857 9.40881 19.0857Z" fill="#FE5558"/>
<path d="M11.3687 21.3018C15.9041 20.5383 19.2019 16.6693 19.2097 12.1033V2.31224C19.2097 1.66228 18.6771 1.13379 18.022 1.13379H17.63C18.285 1.13379 18.8176 1.66228 18.8176 2.31224V12.1033C18.8099 16.6693 15.512 20.5385 10.9767 21.3018C10.7574 21.339 10.5963 21.528 10.5963 21.749V22.7124C10.5963 27.0119 14.1204 30.5099 18.4521 30.5099H18.8441C14.5123 30.5099 10.9883 27.0119 10.9883 22.7124V21.7489C10.9883 21.5281 11.1495 21.339 11.3687 21.3018Z" fill="#FE5558"/>
<path d="M27.8874 13.2832H27.4952C26.3365 13.2832 25.3943 14.2184 25.3943 15.3681C25.3943 16.5186 26.3365 17.4537 27.4952 17.4537H27.8872C26.7286 17.4537 25.7864 16.5186 25.7864 15.3681C25.7866 14.2184 26.7287 13.2832 27.8874 13.2832Z" fill="#FE5558"/>
<path d="M27.9002 10.9254H27.5081C29.3992 10.9254 31.0915 12.1157 31.7186 13.8868C32.5347 16.1912 31.3099 18.7253 28.9884 19.5359C28.8959 19.5711 28.8174 19.6307 28.7629 19.707C28.7084 19.7832 28.6805 19.8726 28.6829 19.9635V22.7123C28.6829 28.3117 24.0936 32.867 18.4521 32.867H18.8441C24.4856 32.867 29.075 28.3119 29.075 22.7123V19.9635C29.0726 19.8726 29.1004 19.7832 29.1549 19.707C29.2094 19.6307 29.288 19.5711 29.3804 19.5359C31.702 18.7253 32.9268 16.1912 32.1106 13.8868C31.4835 12.1157 29.7913 10.9254 27.9002 10.9254Z" fill="#FE5558"/>
<path d="M31.7186 13.8869C32.5347 16.1913 31.3099 18.7254 28.9883 19.5361C28.8959 19.5712 28.8173 19.6308 28.7629 19.7071C28.7084 19.7834 28.6805 19.8727 28.6829 19.9636V22.7125C28.6829 28.3118 24.0935 32.8671 18.452 32.8671C12.8105 32.8671 8.22133 28.312 8.22133 22.7125V21.7489C8.22133 21.5279 8.06057 21.3389 7.8411 21.3017C3.30555 20.5382 0.00778675 16.6692 0 12.1041V2.31224C0 1.66228 0.532974 1.13379 1.18763 1.13379H4.47621C5.13101 1.13379 5.66365 1.66228 5.66365 2.31224C5.66365 2.9622 5.13101 3.49069 4.47621 3.49069H2.83192C2.57979 3.49069 2.37541 3.69357 2.37541 3.94419V12.1042C2.37541 15.9539 5.5304 19.0857 9.40873 19.0857C13.2871 19.0857 16.4425 15.9539 16.4425 12.1042V3.94419C16.4425 3.69357 16.238 3.49069 15.9855 3.49069H14.3416C13.6868 3.49069 13.154 2.96217 13.154 2.31224C13.154 1.66232 13.6869 1.13379 14.3416 1.13379H17.6299C18.2849 1.13379 18.8175 1.66228 18.8175 2.31224V12.1033C18.8098 16.6693 15.512 20.5384 10.9766 21.3018C10.7574 21.339 10.5962 21.528 10.5962 21.749V22.7124C10.5962 27.0119 14.1203 30.5098 18.452 30.5098C22.7837 30.5098 26.3078 27.0119 26.3078 22.7124V19.9635C26.3101 19.8727 26.2822 19.7834 26.2278 19.7071C26.1734 19.6309 26.0949 19.5713 26.0026 19.536C24.2134 18.9117 23.0146 17.2276 23.0193 15.3451C23.0256 12.9081 25.0279 10.9252 27.508 10.9254C29.3992 10.9255 31.0914 12.1157 31.7186 13.8869ZM27.4951 17.4537C28.6525 17.4519 29.5949 16.5167 29.596 15.3681C29.596 14.2184 28.6538 13.2832 27.4951 13.2832C26.3364 13.2832 25.3942 14.2184 25.3942 15.3681C25.3942 16.5186 26.3364 17.4537 27.4951 17.4537Z" fill="#FE5558"/>
</svg>
