<svg width="21" height="19" viewBox="0 0 21 19" fill="none" xmlns="http://www.w3.org/2000/svg">
<path d="M11.5515 0.00349014C6.46153 -0.13651 2.29153 3.95349 2.29153 9.00349H0.501534C0.0515344 9.00349 -0.168466 9.54349 0.151534 9.85349L2.94153 12.6535C3.14153 12.8535 3.45153 12.8535 3.65153 12.6535L6.44153 9.85349C6.51064 9.783 6.55733 9.69362 6.57572 9.59663C6.59411 9.49965 6.58338 9.39938 6.54488 9.30849C6.50638 9.21759 6.44184 9.14012 6.35938 9.08584C6.27693 9.03156 6.18025 9.00291 6.08153 9.00349H4.29153C4.29153 5.10349 7.47153 1.95349 11.3915 2.00349C15.1115 2.05349 18.2415 5.18349 18.2915 8.90349C18.3415 12.8135 15.1915 16.0035 11.2915 16.0035C9.68153 16.0035 8.19153 15.4535 7.01153 14.5235C6.82 14.3726 6.57968 14.2974 6.3363 14.3121C6.09292 14.3269 5.86345 14.4306 5.69153 14.6035C5.27153 15.0235 5.30153 15.7335 5.77153 16.0935C7.34266 17.336 9.28851 18.0092 11.2915 18.0035C16.3415 18.0035 20.4315 13.8335 20.2915 8.74349C20.1615 4.05349 16.2415 0.13349 11.5515 0.00349014ZM11.0415 5.00349C10.6315 5.00349 10.2915 5.34349 10.2915 5.75349V9.43349C10.2915 9.78349 10.4815 10.1135 10.7815 10.2935L13.9015 12.1435C14.2615 12.3535 14.7215 12.2335 14.9315 11.8835C15.1415 11.5235 15.0215 11.0635 14.6715 10.8535L11.7915 9.14349V5.74349C11.7915 5.34349 11.4515 5.00349 11.0415 5.00349Z" fill="white"/>
</svg>
