<svg width="24" height="25" viewBox="0 0 24 25" fill="none" xmlns="http://www.w3.org/2000/svg">
<path d="M1.57825 11.948L1.94629 11.5899C2.0001 11.5366 2.07261 11.5064 2.14832 11.5059H1.8872C1.81148 11.5064 1.73898 11.5366 1.68517 11.5899L1.31716 11.948C1.17747 12.0868 0.988898 12.1653 0.791992 12.1665H1.05324C1.2501 12.1653 1.4386 12.0868 1.57825 11.948Z" fill="white"/>
<path d="M4.07826 22.4334H4.3395C4.1715 22.4334 4.03529 22.2843 4.03529 22.1002V9.70583C4.03492 9.65962 4.04375 9.6138 4.06127 9.57104C4.0788 9.52828 4.10465 9.48944 4.13734 9.45679L10.7106 3.05679C10.7644 3.00327 10.8371 2.97305 10.913 2.97265H10.6517C10.5759 2.97305 10.5032 3.00327 10.4494 3.05679L3.87612 9.45679C3.84343 9.48944 3.81758 9.52828 3.80006 9.57104C3.78254 9.6138 3.7737 9.65962 3.77407 9.70583V22.1002C3.77407 22.2843 3.91026 22.4334 4.07826 22.4334Z" fill="white"/>
<path d="M10.913 18.167C11.3493 18.167 11.7043 17.778 11.7043 17.3V16.1003C11.7043 15.916 11.8406 15.7669 12.0087 15.7669H11.7475C11.5794 15.7669 11.443 15.916 11.443 16.1003V17.3001C11.443 17.778 11.0881 18.167 10.6518 18.167L10.913 18.167Z" fill="white"/>
<path d="M10.913 11.6336H10.6518C11.0881 11.6336 11.443 12.0225 11.443 12.5003V13.7C11.443 13.8845 11.5794 14.0335 11.7475 14.0335H12.0087C11.8406 14.0335 11.7043 13.8845 11.7043 13.7V12.5003C11.7043 12.0225 11.3493 11.6336 10.913 11.6336Z" fill="white"/>
<path d="M12.8429 15.7668H13.1041C13.5404 15.7668 13.8954 15.3783 13.8954 14.9004C13.8954 14.4225 13.5403 14.0334 13.1041 14.0334H12.8429C13.2792 14.0334 13.6342 14.4224 13.6342 14.9004C13.6342 15.3783 13.2792 15.7668 12.8429 15.7668Z" fill="white"/>
<path d="M19.3735 23.3005V11.8393C19.3723 11.7769 19.3885 11.7154 19.4202 11.6617C19.4519 11.608 19.498 11.5641 19.5532 11.5351C19.592 11.5159 19.6346 11.5058 19.6779 11.5059H19.4167C19.3734 11.5058 19.3308 11.5159 19.292 11.5351C19.2368 11.5641 19.1907 11.608 19.159 11.6617C19.1272 11.7154 19.1111 11.7769 19.1123 11.8393V23.3005C19.112 23.7781 18.7574 24.1667 18.3211 24.1667H18.5823C19.0186 24.1667 19.3732 23.7781 19.3735 23.3005Z" fill="white"/>
<path d="M21.0377 10.6528C21.1977 10.8112 21.292 11.0241 21.3019 11.2491C21.3158 11.4754 21.2451 11.6987 21.1035 11.8756C21.0328 11.9653 20.943 12.038 20.8406 12.0883C20.7381 12.1387 20.6257 12.1654 20.5116 12.1665H20.7728C20.887 12.1654 20.9994 12.1387 21.1018 12.0883C21.2042 12.038 21.2941 11.9653 21.3647 11.8756C21.5063 11.6987 21.5771 11.4754 21.5632 11.2491C21.5533 11.0241 21.4589 10.8112 21.2989 10.6528L11.4384 1.05247C11.2987 0.913399 11.1101 0.834764 10.913 0.833496H10.6518C10.8488 0.834764 11.0375 0.913399 11.1772 1.05247L21.0377 10.6528Z" fill="white"/>
<path d="M21.0379 10.6528C21.1979 10.8112 21.2923 11.0242 21.3022 11.2492C21.3161 11.4754 21.2453 11.6987 21.1037 11.8757C21.0331 11.9653 20.9432 12.038 20.8408 12.0884C20.7384 12.1387 20.626 12.1654 20.5118 12.1666C20.315 12.1654 20.1264 12.0869 19.9868 11.948L19.6189 11.5899C19.565 11.5366 19.4925 11.5065 19.4168 11.5059C19.3735 11.5059 19.3308 11.5159 19.2921 11.5352C19.2368 11.5642 19.1908 11.608 19.1591 11.6617C19.1273 11.7154 19.1111 11.7769 19.1123 11.8393V23.3005C19.1121 23.7781 18.7574 24.1668 18.3211 24.1668H2.98226C2.54607 24.1665 2.19138 23.7777 2.19138 23.2998V11.8393C2.19259 11.7769 2.17644 11.7154 2.14472 11.6617C2.113 11.608 2.06697 11.5642 2.01177 11.5351C1.97302 11.5159 1.93033 11.5059 1.88707 11.5059C1.81135 11.5064 1.73884 11.5366 1.68504 11.5899L1.31704 11.948C1.17735 12.0869 0.988787 12.1653 0.791886 12.1665C0.677779 12.1654 0.565392 12.1386 0.462967 12.0883C0.360543 12.0379 0.270682 11.9653 0.199992 11.8756C0.0585825 11.6986 -0.0120857 11.4753 0.00169384 11.2491C0.011679 11.024 0.106183 10.8109 0.266317 10.6524L10.1265 1.05247C10.1953 0.983085 10.2771 0.928012 10.3673 0.890429C10.4575 0.852845 10.5542 0.833496 10.6519 0.833496C10.7495 0.833496 10.8463 0.852845 10.9364 0.890429C11.0266 0.928012 11.1084 0.983085 11.1772 1.05247L21.0379 10.6528ZM17.5298 22.1002V9.70585C17.5302 9.65964 17.5213 9.61383 17.5038 9.57107C17.4863 9.52832 17.4605 9.48948 17.4278 9.45681L10.8542 3.05681C10.8277 3.03014 10.7962 3.00898 10.7615 2.99454C10.7268 2.9801 10.6895 2.97266 10.6519 2.97266C10.6143 2.97266 10.5771 2.9801 10.5424 2.99454C10.5077 3.00898 10.4761 3.03014 10.4496 3.05681L3.87631 9.45681C3.84362 9.48946 3.81777 9.5283 3.80024 9.57106C3.78272 9.61381 3.77389 9.65964 3.77426 9.70585V22.1002C3.77426 22.2843 3.91047 22.4334 4.07847 22.4334H17.2255C17.3936 22.4334 17.5298 22.2843 17.5298 22.1002Z" fill="white"/>
<path d="M12.8431 14.0335C13.2794 14.0335 13.6344 14.4225 13.6344 14.9004C13.6344 15.3784 13.2793 15.7669 12.8431 15.7669H11.7477C11.5796 15.7669 11.4432 15.9161 11.4432 16.1004V17.3002C11.4432 17.778 11.0883 18.1671 10.652 18.1671C10.2157 18.1671 9.86089 17.7781 9.86089 17.3002V16.1003C9.86089 15.916 9.72441 15.7669 9.55644 15.7669H8.4608C8.02448 15.7669 7.66957 15.3783 7.66957 14.9004C7.66957 14.4225 8.02448 14.0334 8.4608 14.0334H9.55644C9.72441 14.0334 9.86089 13.8844 9.86089 13.7V12.5003C9.86089 12.0225 10.2157 11.6336 10.652 11.6336C11.0883 11.6336 11.4432 12.0225 11.4432 12.5003V13.7C11.4432 13.8845 11.5796 14.0335 11.7477 14.0335H12.8431Z" fill="white"/>
</svg>
