<svg width="41" height="42" viewBox="0 0 41 42" fill="none" xmlns="http://www.w3.org/2000/svg">
<path d="M20.523 14.6573C20.523 14.6573 18.4204 12.0575 18.4204 7.75447C18.4204 3.45141 20.523 0 20.523 0C20.523 0 22.5798 2.55494 22.5798 7.75447C22.5798 12.954 20.523 14.6573 20.523 14.6573Z" fill="white"/>
<path d="M27.1504 18.6467C27.1504 18.6467 26.7811 16.4426 27.379 14.5678C28.4646 11.1634 33.8237 6.94775 33.8237 6.94775C33.8237 6.94775 34.6922 9.59234 33.8237 12.2818C32.9553 14.9712 30.2585 18.3778 29.0244 18.6467C27.7903 18.9156 27.1504 18.6467 27.1504 18.6467Z" fill="white"/>
<path d="M31.2642 28.4628C31.2642 28.4628 31.0697 27.3358 31.2642 26.4457C31.8612 23.7136 34.2306 22.293 37.0233 21.7393C38.5471 21.4372 40.9999 21.9186 40.9999 21.9186C40.9999 21.9186 40.8553 23.4142 40.4971 24.2942C39.5642 26.5868 38.0651 27.76 35.6521 28.4628C34.0094 28.9412 31.2642 28.4628 31.2642 28.4628Z" fill="white"/>
<path d="M13.8496 18.6467C13.8496 18.6467 14.2189 16.4426 13.621 14.5678C12.5354 11.1634 7.17626 6.94775 7.17626 6.94775C7.17626 6.94775 6.3078 9.59234 7.17626 12.2818C8.04471 14.9712 10.7415 18.3778 11.9756 18.6467C13.2097 18.9156 13.8496 18.6467 13.8496 18.6467Z" fill="white"/>
<path d="M9.73585 28.4628C9.73585 28.4628 9.93031 27.3358 9.73583 26.4457C9.13882 23.7136 6.76945 22.293 3.97665 21.7393C2.45289 21.4372 6.29425e-05 21.9186 6.29425e-05 21.9186C6.29425e-05 21.9186 0.144732 23.4142 0.50285 24.2942C1.43579 26.5868 2.93495 27.76 5.34789 28.4628C6.99058 28.9412 9.73585 28.4628 9.73585 28.4628Z" fill="white"/>
<path fill-rule="evenodd" clip-rule="evenodd" d="M39.0107 41.6281C34.0944 37.3419 27.6187 34.7382 20.523 34.7382C13.2242 34.7382 6.58158 37.4929 1.61719 42C5.47073 35.7662 12.4551 31.6006 20.4315 31.6006C28.2483 31.6006 35.1123 35.601 39.0107 41.6281Z" fill="white"/>
<path d="M20.4316 31.0181C20.4316 31.0181 21.4086 26.5524 23.3569 24.5187C25.0488 22.7528 28.8419 21.4259 28.8419 21.4259C28.8419 21.4259 24.9567 21.2466 23.814 21.2466C22.6713 21.2466 20.4316 23.8015 20.4316 23.8015V31.0181Z" fill="white"/>
<path d="M20.4313 31.018C20.4313 31.018 19.5001 26.5074 17.5517 24.4738C15.8599 22.7079 12.0668 21.381 12.0668 21.381C12.0668 21.381 15.952 21.2017 17.0947 21.2017C18.2374 21.2017 20.4771 23.7566 20.4771 23.7566L20.4313 31.018Z" fill="white"/>
<ellipse cx="20.4312" cy="19.8566" rx="1.50836" ry="2.82388" fill="white"/>
</svg>
