<svg width="24" height="22" viewBox="0 0 24 22" fill="none" xmlns="http://www.w3.org/2000/svg">
<path d="M3.77583 1.49592C3.77583 1.91646 3.42074 2.25842 2.98417 2.25842H3.24557C3.68209 2.25842 4.03721 1.91646 4.03721 1.49592C4.03721 1.07538 3.68209 0.733398 3.24555 0.733398H2.98417C3.42074 0.733398 3.77583 1.07536 3.77583 1.49592Z" fill="white"/>
<path d="M6.2725 12.3493H6.53387C3.94837 12.3493 1.84496 10.3229 1.84496 7.83193V2.55189C1.84496 2.38973 1.98125 2.25843 2.14933 2.25843H1.88795C1.71987 2.25843 1.58362 2.38973 1.58362 2.55189V7.83193C1.58362 10.3229 3.68694 12.3493 6.2725 12.3493Z" fill="white"/>
<path d="M7.57912 13.7833C10.6027 13.2893 12.8012 10.7858 12.8064 7.83133V1.49593C12.8064 1.07536 12.4513 0.733398 12.0146 0.733398H11.7533C12.19 0.733398 12.5451 1.07536 12.5451 1.49593V7.83133C12.5399 10.7858 10.3413 13.2894 7.31775 13.7833C7.17159 13.8074 7.06416 13.9297 7.06416 14.0727V14.696C7.06416 17.4781 9.41354 19.7414 12.3013 19.7414H12.5627C9.67482 19.7414 7.32551 17.4781 7.32551 14.696V14.0726C7.32551 13.9297 7.43296 13.8074 7.57912 13.7833Z" fill="white"/>
<path d="M18.5915 8.59479H18.3301C17.5576 8.59479 16.9295 9.19991 16.9295 9.94385C16.9295 10.6883 17.5576 11.2934 18.3301 11.2934H18.5914C17.819 11.2934 17.1909 10.6883 17.1909 9.94385C17.1911 9.19991 17.8191 8.59479 18.5915 8.59479Z" fill="white"/>
<path d="M18.6001 7.06914H18.3387C19.5994 7.06914 20.7277 7.83932 21.1457 8.98532C21.6898 10.4764 20.8733 12.1161 19.3255 12.6407C19.2639 12.6634 19.2115 12.702 19.1752 12.7513C19.1389 12.8007 19.1203 12.8585 19.1219 12.9173V14.696C19.1219 18.3191 16.0623 21.2667 12.3013 21.2667H12.5627C16.3237 21.2667 19.3833 18.3192 19.3833 14.696V12.9173C19.3817 12.8585 19.4003 12.8007 19.4366 12.7513C19.4729 12.702 19.5253 12.6634 19.5869 12.6407C21.1346 12.1161 21.9511 10.4764 21.407 8.98532C20.989 7.83932 19.8608 7.06914 18.6001 7.06914Z" fill="white"/>
<path d="M21.1457 8.98543C21.6898 10.4765 20.8733 12.1162 19.3255 12.6408C19.2639 12.6635 19.2116 12.7021 19.1752 12.7514C19.1389 12.8008 19.1203 12.8586 19.1219 12.9174V14.6961C19.1219 18.3192 16.0623 21.2667 12.3013 21.2667C8.54034 21.2667 5.48089 18.3193 5.48089 14.6961V14.0726C5.48089 13.9296 5.37371 13.8073 5.2274 13.7832C2.2037 13.2892 0.00519117 10.7857 0 7.83184V1.49593C0 1.07536 0.355316 0.733398 0.791752 0.733398H2.98414C3.42067 0.733398 3.77577 1.07536 3.77577 1.49593C3.77577 1.91649 3.42067 2.25845 2.98414 2.25845H1.88794C1.71986 2.25845 1.58361 2.38972 1.58361 2.55189V7.83193C1.58361 10.3229 3.68693 12.3493 6.27249 12.3493C8.85804 12.3493 10.9616 10.3229 10.9616 7.83193V2.55189C10.9616 2.38972 10.8254 2.25845 10.657 2.25845H9.56106C9.12453 2.25845 8.76931 1.91647 8.76931 1.49593C8.76931 1.07539 9.12463 0.733398 9.56106 0.733398H11.7533C12.1899 0.733398 12.545 1.07536 12.545 1.49593V7.83133C12.5398 10.7858 10.3413 13.2894 7.31773 13.7833C7.17157 13.8074 7.06412 13.9297 7.06412 14.0727V14.696C7.06412 17.4781 9.41352 19.7414 12.3013 19.7414C15.1891 19.7414 17.5385 17.4781 17.5385 14.696V12.9174C17.5401 12.8586 17.5215 12.8008 17.4852 12.7515C17.4489 12.7021 17.3966 12.6635 17.335 12.6407C16.1423 12.2368 15.3431 11.147 15.3462 9.92893C15.3504 8.35207 16.6853 7.06903 18.3387 7.06916C19.5994 7.06918 20.7276 7.83932 21.1457 8.98543ZM18.3301 11.2934C19.1016 11.2922 19.7299 10.6871 19.7307 9.94386C19.7307 9.19994 19.1025 8.59481 18.3301 8.59481C17.5576 8.59481 16.9295 9.19994 16.9295 9.94386C16.9295 10.6882 17.5576 11.2934 18.3301 11.2934Z" fill="#F0F8FF"/>
</svg>
