<svg width="39" height="42" viewBox="0 0 39 42" fill="none" xmlns="http://www.w3.org/2000/svg">
<path d="M29.4925 8.78988C28.2451 6.40337 25.0874 6.40337 23.84 8.78988L16.5725 22.6996C15.6141 24.538 15 26.6632 15 28.9826C14.9995 30.8391 15.3731 32.673 16.0944 34.3554C16.8156 36.0377 17.8671 37.5275 19.1746 38.7198C20.4822 39.9121 22.014 40.7779 23.6623 41.2563C25.3106 41.7347 27.0352 41.814 28.7147 41.4886C32.9924 40.6954 36.5135 37.2059 37.7949 32.7393C38.8489 29.0682 38.2571 25.6931 36.8641 22.9146L36.8599 22.9054L29.4914 8.78988H29.4925Z" fill="#732628"/>
<path d="M19.4925 4.78988C18.2451 2.40337 15.0874 2.40337 13.84 4.78988L6.5725 18.6996C5.61413 20.538 5 22.6632 5 24.9826C4.99953 26.8391 5.37309 28.673 6.09435 30.3554C6.81562 32.0377 7.86705 33.5275 9.17461 34.7198C10.4822 35.9121 12.014 36.7779 13.6623 37.2563C15.3106 37.7347 17.0352 37.814 18.7147 37.4886C22.9924 36.6954 26.5135 33.2059 27.7949 28.7393C28.8489 25.0682 28.2571 21.6931 26.8641 18.9146L26.8599 18.9054L19.4914 4.78988H19.4925Z" fill="#FE5558"/>
<path d="M17.1218 26.5749C17.1218 27.2551 17.0373 27.8749 16.8683 28.4343C16.6992 28.9897 16.4416 29.4686 16.0955 29.8711C15.7534 30.2736 15.3188 30.5835 14.7915 30.8008C14.2643 31.0141 13.6405 31.1207 12.9201 31.1207C12.1997 31.1207 11.5759 31.0141 11.0487 30.8008C10.5214 30.5835 10.0848 30.2736 9.73864 29.8711C9.39654 29.4686 9.14098 28.9877 8.97195 28.4283C8.80291 27.8688 8.71839 27.247 8.71839 26.5629C8.71839 25.6493 8.86731 24.8544 9.16513 24.1783C9.46697 23.4981 9.92981 22.9709 10.5536 22.5966C11.1774 22.2223 11.9703 22.0352 12.9322 22.0352C13.89 22.0352 14.6768 22.2223 15.2926 22.5966C15.9124 22.9709 16.3712 23.4981 16.669 24.1783C16.9709 24.8584 17.1218 25.6573 17.1218 26.5749ZM10.6804 26.5749C10.6804 27.1907 10.7569 27.7219 10.9098 28.1687C11.0668 28.6114 11.3103 28.9535 11.6403 29.195C11.9703 29.4324 12.3969 29.5511 12.9201 29.5511C13.4513 29.5511 13.882 29.4324 14.212 29.195C14.542 28.9535 14.7815 28.6114 14.9304 28.1687C15.0833 27.7219 15.1598 27.1907 15.1598 26.5749C15.1598 25.6493 14.9867 24.9208 14.6406 24.3896C14.2945 23.8583 13.725 23.5927 12.9322 23.5927C12.4049 23.5927 11.9743 23.7134 11.6403 23.9549C11.3103 24.1924 11.0668 24.5344 10.9098 24.9812C10.7569 25.4239 10.6804 25.9551 10.6804 26.5749ZM24.505 31H18.3352V29.7021L20.5508 27.4624C20.9975 27.0036 21.3557 26.6212 21.6254 26.3153C21.899 26.0054 22.0962 25.7237 22.217 25.4702C22.3417 25.2166 22.4041 24.945 22.4041 24.6552C22.4041 24.305 22.3055 24.0434 22.1083 23.8704C21.9151 23.6933 21.6555 23.6048 21.3295 23.6048C20.9875 23.6048 20.6554 23.6832 20.3335 23.8402C20.0115 23.9972 19.6754 24.2205 19.3253 24.5103L18.3111 23.3089C18.5646 23.0916 18.8323 22.8864 19.114 22.6932C19.3997 22.5 19.7298 22.3451 20.104 22.2283C20.4824 22.1076 20.9351 22.0472 21.4624 22.0472C22.0419 22.0472 22.5389 22.1519 22.9535 22.3612C23.372 22.5704 23.694 22.8562 23.9194 23.2184C24.1448 23.5766 24.2575 23.9831 24.2575 24.4379C24.2575 24.9248 24.1609 25.3696 23.9677 25.772C23.7745 26.1745 23.4928 26.5729 23.1225 26.9673C22.7563 27.3617 22.3136 27.7984 21.7944 28.2773L20.6594 29.3459V29.4304H24.505V31Z" fill="white"/>
</svg>
