<svg width="33" height="33" viewBox="0 0 33 33" fill="none" xmlns="http://www.w3.org/2000/svg">
<path d="M16.4187 26.25C16.9875 26.25 17.4685 26.0534 17.8617 25.6601C18.2539 25.268 18.45 24.7875 18.45 24.2188C18.45 23.65 18.2539 23.1695 17.8617 22.7774C17.4685 22.3841 16.9875 22.1875 16.4187 22.1875C15.85 22.1875 15.369 22.3841 14.9757 22.7774C14.5836 23.1695 14.3875 23.65 14.3875 24.2188C14.3875 24.7875 14.5836 25.268 14.9757 25.6601C15.369 26.0534 15.85 26.25 16.4187 26.25ZM14.9563 19.9937H17.9625C17.9625 19.1 18.0643 18.3958 18.268 17.8813C18.4706 17.3667 19.0458 16.6625 19.9937 15.7688C20.6979 15.0646 21.2531 14.394 21.6594 13.757C22.0656 13.1211 22.2688 12.3562 22.2688 11.4625C22.2688 9.94583 21.7135 8.78125 20.6031 7.96875C19.4927 7.15625 18.1792 6.75 16.6625 6.75C15.1188 6.75 13.8664 7.15625 12.9055 7.96875C11.9435 8.78125 11.2729 9.75625 10.8938 10.8938L13.575 11.95C13.7104 11.4625 14.0154 10.9344 14.4899 10.3656C14.9633 9.79688 15.6875 9.5125 16.6625 9.5125C17.5292 9.5125 18.1792 9.74921 18.6125 10.2226C19.0458 10.6971 19.2625 11.2188 19.2625 11.7875C19.2625 12.3292 19.1 12.8367 18.775 13.3101C18.45 13.7846 18.0437 14.225 17.5562 14.6313C16.3646 15.6875 15.6333 16.4865 15.3625 17.0281C15.0917 17.5698 14.9563 18.5583 14.9563 19.9937ZM16.5 32.75C14.2521 32.75 12.1396 32.3232 10.1625 31.4695C8.18542 30.6169 6.46563 29.4594 5.00313 27.9969C3.54063 26.5344 2.38308 24.8146 1.5305 22.8375C0.676833 20.8604 0.25 18.7479 0.25 16.5C0.25 14.2521 0.676833 12.1396 1.5305 10.1625C2.38308 8.18542 3.54063 6.46563 5.00313 5.00313C6.46563 3.54063 8.18542 2.38254 10.1625 1.52887C12.1396 0.676292 14.2521 0.25 16.5 0.25C18.7479 0.25 20.8604 0.676292 22.8375 1.52887C24.8146 2.38254 26.5344 3.54063 27.9969 5.00313C29.4594 6.46563 30.6169 8.18542 31.4695 10.1625C32.3232 12.1396 32.75 14.2521 32.75 16.5C32.75 18.7479 32.3232 20.8604 31.4695 22.8375C30.6169 24.8146 29.4594 26.5344 27.9969 27.9969C26.5344 29.4594 24.8146 30.6169 22.8375 31.4695C20.8604 32.3232 18.7479 32.75 16.5 32.75Z" fill="white"/>
</svg>
