<svg width="19" height="20" viewBox="0 0 19 20" fill="none" xmlns="http://www.w3.org/2000/svg">
<path d="M4 0V2H2V6C2 8.21 3.79 10 6 10C8.21 10 10 8.21 10 6V2H8V0H11C11.2652 0 11.5196 0.105357 11.7071 0.292893C11.8946 0.48043 12 0.734784 12 1V6C11.9998 7.41797 11.4976 8.79009 10.5824 9.87315C9.66719 10.9562 8.39807 11.6803 7 11.917V13.5C6.99945 14.3196 7.28656 15.1134 7.81129 15.7431C8.33601 16.3727 9.06506 16.7982 9.87135 16.9454C10.6776 17.0926 11.51 16.9522 12.2234 16.5486C12.9368 16.1451 13.4859 15.5039 13.775 14.737C13.1315 14.4484 12.6103 13.9424 12.3028 13.3078C11.9953 12.6732 11.9212 11.9505 12.0935 11.2666C12.2658 10.5828 12.6735 9.98154 13.245 9.56839C13.8165 9.15525 14.5153 8.95664 15.2187 9.00745C15.9221 9.05825 16.5851 9.35522 17.0913 9.84621C17.5975 10.3372 17.9145 10.9908 17.9868 11.6923C18.059 12.3938 17.8818 13.0983 17.4863 13.6822C17.0908 14.266 16.5023 14.6919 15.824 14.885C15.4881 16.1808 14.6911 17.3096 13.5825 18.0598C12.4739 18.81 11.1297 19.1302 9.80193 18.9603C8.47414 18.7904 7.2539 18.1421 6.3699 17.1369C5.4859 16.1317 4.99884 14.8386 5 13.5V11.917C3.60184 11.6805 2.33261 10.9565 1.41736 9.87335C0.502115 8.79025 -1.77509e-05 7.41803 4.70646e-10 6V1C4.70646e-10 0.734784 0.105357 0.48043 0.292893 0.292893C0.48043 0.105357 0.734784 0 1 0H4Z" fill="white"/>
</svg>
