<svg width="34" height="36" viewBox="0 0 34 36" fill="none" xmlns="http://www.w3.org/2000/svg">
<path d="M6.12303 29.7509L1.91583 34.4386C1.81666 34.5516 1.69529 34.6422 1.55958 34.7045C1.42386 34.7669 1.27681 34.7995 1.12793 34.8003H1.49742C1.6463 34.7995 1.79335 34.7669 1.92907 34.7045C2.06479 34.6422 2.18616 34.5516 2.28533 34.4386L6.49253 29.7509C6.53082 29.7072 6.57765 29.6721 6.63005 29.6478C6.68244 29.6236 6.73924 29.6108 6.79679 29.6102H6.4273C6.36975 29.6108 6.31295 29.6236 6.26055 29.6478C6.20816 29.6721 6.16132 29.7072 6.12303 29.7509Z" fill="#FE5558"/>
<path d="M7.26518 26.6366V19.384C7.26426 19.2593 7.3089 19.1388 7.39046 19.0457L19.601 5.37007C20.5561 4.37823 21.7858 3.83875 23.0766 3.83875H22.7071C21.4163 3.83875 20.1867 4.37823 19.2315 5.37007L7.02098 19.0457C6.93942 19.1388 6.89476 19.2593 6.89569 19.384V26.6366C6.89569 26.9015 7.08835 27.116 7.3261 27.116H7.69559C7.4578 27.116 7.26518 26.9015 7.26518 26.6366Z" fill="#FE5558"/>
<path d="M24.3171 9.36881C24.32 9.04154 24.2023 8.72506 23.9873 8.48174C23.8875 8.36707 23.765 8.27511 23.628 8.21185C23.4909 8.14859 23.3422 8.11545 23.1917 8.1146H22.8223C22.9728 8.11545 23.1214 8.14859 23.2585 8.21185C23.3956 8.27511 23.518 8.36707 23.6178 8.48174C23.8304 8.72653 23.9477 9.04197 23.9477 9.36866C23.9477 9.69536 23.8304 10.0108 23.6178 10.2556L12.7629 22.3515C12.6637 22.4645 12.5423 22.555 12.4066 22.6173C12.2709 22.6795 12.1239 22.7121 11.975 22.713H12.3445C12.4934 22.7121 12.6404 22.6795 12.7761 22.6173C12.9118 22.555 13.0332 22.4645 13.1324 22.3515L23.9873 10.2557C24.2024 10.0125 24.3201 9.69604 24.3171 9.36881Z" fill="#FE5558"/>
<path d="M23.1914 1.19971H22.8219C24.78 1.19971 26.6199 2.05019 28.0165 3.61051C29.3968 5.15256 30.1559 7.20112 30.1532 9.37936C30.1506 11.5576 29.3873 13.6042 28.0041 15.1413L15.2512 29.2489C15.1526 29.3609 15.0323 29.4509 14.8978 29.5131C14.7632 29.5753 14.6175 29.6084 14.4698 29.6102H14.8392C14.9869 29.6084 15.1327 29.5753 15.2672 29.5131C15.4017 29.4509 15.5221 29.3609 15.6206 29.2489L28.3736 15.1413C29.7567 13.6042 30.5203 11.5574 30.5227 9.37936C30.5252 7.20134 29.7663 5.15256 28.386 3.61051C26.9894 2.05019 25.1495 1.19971 23.1914 1.19971Z" fill="#FE5558"/>
<path d="M22.8224 8.11473C22.9729 8.11559 23.1216 8.14874 23.2586 8.212C23.3957 8.27526 23.5182 8.36721 23.618 8.48188C23.8305 8.72667 23.9478 9.0421 23.9478 9.3688C23.9478 9.6955 23.8305 10.0109 23.618 10.2557L12.7632 22.3515C12.664 22.4644 12.5426 22.555 12.4069 22.6172C12.2711 22.6795 12.1241 22.7121 11.9753 22.7129C11.6745 22.7129 11.3921 22.5821 11.1716 22.3345C10.737 21.8457 10.7398 21.0549 11.1792 20.569L22.0265 8.48188C22.1264 8.36722 22.2489 8.27527 22.3861 8.21202C22.5232 8.14876 22.6719 8.11562 22.8224 8.11473Z" fill="#FE5558"/>
<path d="M28.0167 3.61055C29.3971 5.15256 30.1561 7.20112 30.1535 9.37936C30.1508 11.5576 29.3875 13.6042 28.0043 15.1413L15.2514 29.2489C15.1529 29.361 15.0325 29.4509 14.898 29.5131C14.7635 29.5753 14.6177 29.6084 14.47 29.6102H6.42756C6.37001 29.6108 6.31322 29.6236 6.26083 29.6479C6.20844 29.6721 6.16159 29.7072 6.12329 29.751L1.91609 34.4387C1.81691 34.5517 1.69555 34.6423 1.55983 34.7046C1.42412 34.7669 1.27706 34.7995 1.12819 34.8003C0.827414 34.8003 0.545375 34.6698 0.324577 34.4215C0.11406 34.177 -0.00137217 33.8626 1.23109e-05 33.5375C0.00139679 33.2124 0.119518 32.899 0.332109 32.6564L4.53157 27.9771C4.61341 27.8838 4.6583 27.7629 4.65754 27.6378V18.6777C4.65622 18.356 4.77182 18.0452 4.9821 17.8051L17.6542 3.58052C19.0359 2.04492 20.8711 1.19971 22.8221 1.19971C24.7803 1.19971 26.6201 2.05019 28.0167 3.61055ZM26.4221 13.3568C28.2314 11.1932 28.2314 7.80359 26.4221 5.63964C25.4655 4.49534 24.1113 3.83865 22.7073 3.83865C21.4166 3.83865 20.1869 4.37817 19.2317 5.36997L7.02123 19.0457C6.93965 19.1387 6.89499 19.2593 6.89594 19.384V26.6365C6.89594 26.9014 7.08859 27.1159 7.32635 27.1159H13.8347C13.892 27.1154 13.9487 27.1028 14.001 27.0788C14.0533 27.0548 14.1001 27.02 14.1384 26.9765L26.4221 13.3568Z" fill="#FE5558"/>
</svg>
