<svg width="27" height="27" viewBox="0 0 27 27" fill="none" xmlns="http://www.w3.org/2000/svg">
<path d="M13.0833 1C6.40971 1 1 6.40971 1 13.0833C1 19.757 6.40971 25.1667 13.0833 25.1667C19.757 25.1667 25.1667 19.757 25.1667 13.0833C25.1667 6.40971 19.757 1 13.0833 1Z" stroke="white" stroke-width="1.8125" stroke-linecap="round" stroke-linejoin="round"/>
<path d="M3.74414 20.7514C3.74414 20.7514 6.43752 17.3125 13.0833 17.3125C19.7292 17.3125 22.4238 20.7514 22.4238 20.7514M13.0833 13.0833C14.0448 13.0833 14.9668 12.7014 15.6466 12.0216C16.3264 11.3418 16.7083 10.4197 16.7083 9.45831C16.7083 8.4969 16.3264 7.57487 15.6466 6.89505C14.9668 6.21523 14.0448 5.83331 13.0833 5.83331C12.1219 5.83331 11.1999 6.21523 10.5201 6.89505C9.84027 7.57487 9.45835 8.4969 9.45835 9.45831C9.45835 10.4197 9.84027 11.3418 10.5201 12.0216C11.1999 12.7014 12.1219 13.0833 13.0833 13.0833V13.0833Z" stroke="white" stroke-width="1.8125" stroke-linecap="round" stroke-linejoin="round"/>
</svg>
