<svg width="452" height="461" viewBox="0 0 452 461" fill="none" xmlns="http://www.w3.org/2000/svg">
<path d="M224.75 160.881C224.75 160.881 201.725 132.346 201.725 85.1145C201.725 37.8833 224.75 0 224.75 0C224.75 0 247.275 28.0435 247.275 85.1145C247.275 142.186 224.75 160.881 224.75 160.881Z" fill="white" fill-opacity="0.3"/>
<path d="M297.331 204.668C297.331 204.668 293.287 180.476 299.834 159.897C311.723 122.531 370.412 76.2587 370.412 76.2587C370.412 76.2587 379.923 105.286 370.412 134.806C360.902 164.325 331.369 201.717 317.854 204.668C304.339 207.62 297.331 204.668 297.331 204.668Z" fill="white" fill-opacity="0.3"/>
<path d="M342.381 312.414C342.381 312.414 340.252 300.044 342.382 290.275C348.92 260.286 374.867 244.694 405.452 238.616C422.139 235.3 449 240.584 449 240.584C449 240.584 447.416 257 443.494 266.659C433.277 291.823 416.86 304.701 390.435 312.414C372.446 317.666 342.381 312.414 342.381 312.414Z" fill="white" stroke="white" stroke-width="4" stroke-linecap="round"/>
<path d="M151.669 204.668C151.669 204.668 155.713 180.476 149.166 159.897C137.277 122.531 78.5878 76.2587 78.5878 76.2587C78.5878 76.2587 69.0771 105.286 78.5878 134.806C88.0984 164.325 117.631 201.717 131.146 204.668C144.661 207.62 151.669 204.668 151.669 204.668Z" fill="white" fill-opacity="0.3"/>
<path d="M106.619 312.414C106.619 312.414 108.749 300.044 106.619 290.275C100.081 260.286 74.1334 244.694 43.5488 238.616C26.8617 235.3 0.000320435 240.584 0.000320435 240.584C0.000320435 240.584 1.58463 257 5.50645 266.659C15.7233 291.823 32.1409 304.701 58.5655 312.414C76.555 317.666 106.619 312.414 106.619 312.414Z" fill="white" fill-opacity="0.3"/>
<path fill-rule="evenodd" clip-rule="evenodd" d="M427.213 456.918C373.374 409.871 302.457 381.293 224.75 381.293C144.82 381.293 72.0752 411.53 17.709 461C59.9099 392.576 136.397 346.854 223.749 346.854C309.352 346.854 384.521 390.764 427.213 456.918Z" fill="white" fill-opacity="0.3"/>
<path d="M223.749 340.458C223.749 340.458 234.447 291.441 255.785 269.119C274.313 249.736 315.852 235.172 315.852 235.172C315.852 235.172 273.304 233.204 260.79 233.204C248.276 233.204 223.749 261.247 223.749 261.247V340.458Z" fill="white" fill-opacity="0.3"/>
<path d="M223.749 340.458C223.749 340.458 213.552 290.949 192.214 268.627C173.686 249.244 132.147 234.68 132.147 234.68C132.147 234.68 174.695 232.712 187.209 232.712C199.723 232.712 224.25 260.755 224.25 260.755L223.749 340.458Z" fill="white" fill-opacity="0.3"/>
<ellipse cx="223.749" cy="217.952" rx="16.5184" ry="30.9955" fill="white" fill-opacity="0.3"/>
</svg>
